<?xml version="1.0" encoding="UTF-8"?>
<svg version="1.1" xmlns="http://www.w3.org/2000/svg" width="360" height="360">
<path d="M0 0 C4.38695314 1.91944072 8.80416353 3.68424361 13.30078125 5.328125 C19.32599484 7.53249023 25.28857136 9.86467713 31.23828125 12.265625 C37.96365377 14.97662292 44.71238802 17.59791357 51.51171875 20.1171875 C57.19063092 22.22813667 62.80577137 24.47990177 68.41796875 26.76171875 C71.11066579 27.84090673 73.82151984 28.83981571 76.55859375 29.80078125 C77.27724609 30.05666016 77.99589844 30.31253906 78.73632812 30.57617188 C80.11103393 31.06217898 81.48978368 31.53695914 82.87304688 31.99804688 C87.49455841 33.64283098 90.53310018 35.12918491 93.23828125 39.265625 C94.00282178 43.90142892 93.9808618 48.45159376 93.92578125 53.140625 C93.95349609 54.39488281 93.98121094 55.64914063 94.00976562 56.94140625 C93.98257868 67.21807287 93.98257868 67.21807287 90.4453125 71.5234375 C88.26215199 73.68392579 86.02150976 74.98407873 83.23828125 76.265625 C83.79515625 76.513125 84.35203125 76.760625 84.92578125 77.015625 C87.71348776 78.52249338 89.93174628 80.0837676 92.23828125 82.265625 C93.92963178 88.16016965 93.16625924 94.33585034 92.92578125 100.390625 C92.89033203 101.58300781 92.85488281 102.77539062 92.81835938 104.00390625 C92.77517578 105.14472656 92.73199219 106.28554687 92.6875 107.4609375 C92.63082153 109.02352295 92.63082153 109.02352295 92.57299805 110.61767578 C92.23828125 113.265625 92.23828125 113.265625 90.23828125 116.265625 C89.57828125 116.265625 88.91828125 116.265625 88.23828125 116.265625 C88.23828125 116.925625 88.23828125 117.585625 88.23828125 118.265625 C86.58828125 118.595625 84.93828125 118.925625 83.23828125 119.265625 C83.23828125 119.925625 83.23828125 120.585625 83.23828125 121.265625 C83.96015625 121.3275 84.68203125 121.389375 85.42578125 121.453125 C89.22941736 122.55195321 90.73936465 124.21863433 93.23828125 127.265625 C93.77758789 130.41601563 93.77758789 130.41601563 93.6484375 133.921875 C93.60525391 135.19160156 93.56207031 136.46132812 93.51757812 137.76953125 C93.48140381 138.4258252 93.44522949 139.08211914 93.40795898 139.75830078 C93.30119281 141.75791688 93.24521862 143.76003102 93.18945312 145.76171875 C92.72451854 156.53726152 92.72451854 156.53726152 88.23828125 161.265625 C83.6506044 164.96181006 78.35024748 167.15432783 72.88671875 169.23046875 C69.18049814 170.6790653 65.58680535 172.34862978 61.9765625 174.01953125 C55.86416215 176.80106579 49.65268264 179.36873988 43.47265625 181.99609375 C42.2233432 182.52726555 42.2233432 182.52726555 40.9487915 183.06916809 C39.18724035 183.81806256 37.42566353 184.56689667 35.6640625 185.31567383 C33.03762975 186.43214739 30.41139021 187.54907456 27.78515625 188.66601562 C26.05600137 189.4010694 24.32683471 190.13609546 22.59765625 190.87109375 C21.74135117 191.23534454 20.88504608 191.59959534 20.00279236 191.97488403 C15.67601613 193.81343355 11.34529951 195.64162289 7.00610352 197.45068359 C6.16061951 197.8039119 5.3151355 198.1571402 4.44403076 198.52107239 C2.86070798 199.18181503 1.27643635 199.84029118 -0.309021 200.49589539 C-5.42423581 202.63215378 -10.38506112 205.00074912 -15.32421875 207.515625 C-17.80279137 208.76680694 -20.28225113 210.01621657 -22.76171875 211.265625 C-23.66019531 211.72453125 -24.55867187 212.1834375 -25.484375 212.65625 C-35.46287823 217.26420921 -45.82151098 216.16026562 -55.9453125 212.53125 C-58.73240649 211.27879722 -61.30759457 209.79254107 -63.94262695 208.25146484 C-66.88060569 206.65925465 -69.99473759 205.5632256 -73.13671875 204.453125 C-84.04924419 200.47234242 -94.81998622 196.16994112 -105.32421875 191.203125 C-109.85580207 189.07423074 -114.43356191 187.22333995 -119.13671875 185.515625 C-128.93120326 181.94248321 -138.45051065 177.75065944 -147.97021484 173.50732422 C-149.77771368 172.70332395 -151.58779184 171.90508727 -153.40087891 171.11376953 C-155.77828243 170.07542198 -158.14597666 169.01772187 -160.51171875 167.953125 C-161.20837646 167.65229004 -161.90503418 167.35145508 -162.62280273 167.04150391 C-166.86895025 165.09113573 -168.76492177 163.4627259 -170.76171875 159.265625 C-171.14990234 156.20703125 -171.14990234 156.20703125 -171.16015625 152.828125 C-171.16402344 151.60351562 -171.16789062 150.37890625 -171.171875 149.1171875 C-171.15447266 147.21066406 -171.15447266 147.21066406 -171.13671875 145.265625 C-171.14832031 143.99460938 -171.15992188 142.72359375 -171.171875 141.4140625 C-171.16800781 140.18945312 -171.16414063 138.96484375 -171.16015625 137.703125 C-171.15677246 136.58808594 -171.15338867 135.47304687 -171.14990234 134.32421875 C-170.71572432 130.90322358 -169.79998324 129.0220057 -167.76171875 126.265625 C-165.57421875 124.953125 -165.57421875 124.953125 -163.76171875 124.265625 C-164.09171875 123.605625 -164.42171875 122.945625 -164.76171875 122.265625 C-165.75171875 121.935625 -166.74171875 121.605625 -167.76171875 121.265625 C-167.76171875 120.605625 -167.76171875 119.945625 -167.76171875 119.265625 C-168.42171875 119.265625 -169.08171875 119.265625 -169.76171875 119.265625 C-171.5631764 113.86125205 -170.98907483 108.04594334 -171.01171875 102.390625 C-171.03234375 101.11058594 -171.05296875 99.83054687 -171.07421875 98.51171875 C-171.08195312 96.66126953 -171.08195312 96.66126953 -171.08984375 94.7734375 C-171.1038623 93.08178467 -171.1038623 93.08178467 -171.11816406 91.35595703 C-170.71965857 87.90096901 -169.81244183 86.04589625 -167.76171875 83.265625 C-165.11754461 81.53038572 -163.97705932 81.265625 -160.76171875 81.265625 C-160.76171875 80.275625 -160.76171875 79.285625 -160.76171875 78.265625 C-161.31859375 78.1625 -161.87546875 78.059375 -162.44921875 77.953125 C-165.28414079 77.11031034 -167.37122852 76.01003679 -169.76171875 74.265625 C-172.0594468 67.55142734 -170.89406259 59.29853261 -170.76171875 52.265625 C-170.74496094 51.11449219 -170.72820312 49.96335938 -170.7109375 48.77734375 C-170.39304673 42.0653071 -170.39304673 42.0653071 -167.88671875 38.890625 C-160.30708578 34.94921585 -152.7287583 31.83728403 -144.59375 29.2265625 C-141.33216003 28.11987128 -138.26153069 26.759958 -135.13671875 25.3203125 C-131.30534995 23.61888228 -127.38243444 22.16537678 -123.46484375 20.67578125 C-119.32696448 19.10006984 -115.19997083 17.49774936 -111.07421875 15.890625 C-110.31818359 15.59655762 -109.56214844 15.30249023 -108.78320312 14.99951172 C-104.85281389 13.47056713 -100.92369857 11.93842709 -96.99609375 10.40234375 C-89.76621651 7.57789171 -82.54250972 4.76235416 -75.21875 2.1875 C-72.66481118 1.2292654 -70.17640384 0.14715909 -67.67358398 -0.93603516 C-42.51965926 -11.43958947 -25.03641363 -11.00712016 0 0 Z " fill="#D82E22" transform="translate(219.76171875,13.734375)"/>
<path d="M0 0 C4.38695314 1.91944072 8.80416353 3.68424361 13.30078125 5.328125 C19.32599484 7.53249023 25.28857136 9.86467713 31.23828125 12.265625 C37.96365377 14.97662292 44.71238802 17.59791357 51.51171875 20.1171875 C57.1878976 22.22712065 62.80027649 24.47805285 68.41015625 26.7578125 C71.12934836 27.8474783 73.86714734 28.85927692 76.62890625 29.8359375 C77.35658203 30.09632812 78.08425781 30.35671875 78.83398438 30.625 C80.23508401 31.12294294 81.63992695 31.61051682 83.04882812 32.0859375 C87.00462474 33.49958258 89.16609526 34.59551144 91.23828125 38.265625 C91.57885742 41.38183594 91.57885742 41.38183594 91.53125 45 C91.52158203 46.29550781 91.51191406 47.59101562 91.50195312 48.92578125 C91.47688908 50.28906854 91.45149427 51.65234979 91.42578125 53.015625 C91.41072643 54.39451684 91.39703942 55.77342435 91.38476562 57.15234375 C91.34940034 60.52383415 91.30004029 63.89453154 91.23828125 67.265625 C90.90828125 67.265625 90.57828125 67.265625 90.23828125 67.265625 C89.90828125 59.345625 89.57828125 51.425625 89.23828125 43.265625 C86.26828125 45.245625 83.29828125 47.225625 80.23828125 49.265625 C78.50395209 50.19726567 76.74500213 51.08681365 74.95092773 51.89746094 C74.02063248 52.32158264 73.09033722 52.74570435 72.1318512 53.18267822 C71.15505905 53.61739441 70.17826691 54.0521106 69.171875 54.5 C68.12873642 54.97097107 67.08559784 55.44194214 66.010849 55.92718506 C55.8534834 60.48988456 45.61865382 64.87070719 35.3666687 69.21563721 C18.19983703 76.49466228 1.10875758 83.90483023 -15.81420898 91.73535156 C-30.0833853 98.33030124 -39.31293682 101.92382715 -54.76171875 97.265625 C-58.29977109 95.92811773 -61.70939355 94.36307127 -65.13671875 92.765625 C-77.35611289 87.23209739 -89.72820703 82.10821461 -102.13671875 77.015625 C-115.9338305 71.34306795 -129.72092511 65.65049071 -143.44049072 59.7923584 C-144.92809169 59.15731313 -146.41631796 58.52373034 -147.9052124 57.89172363 C-149.9518119 57.02221308 -151.99581363 56.14688155 -154.0390625 55.26953125 C-155.74437134 54.53972046 -155.74437134 54.53972046 -157.48413086 53.79516602 C-161.00938693 52.15004652 -164.3840578 50.19571697 -167.76171875 48.265625 C-168.09171875 55.855625 -168.42171875 63.445625 -168.76171875 71.265625 C-169.42171875 70.935625 -170.08171875 70.605625 -170.76171875 70.265625 C-171.03290519 42.87579449 -171.03290519 42.87579449 -167.88671875 38.890625 C-160.30708578 34.94921585 -152.7287583 31.83728403 -144.59375 29.2265625 C-141.33216003 28.11987128 -138.26153069 26.759958 -135.13671875 25.3203125 C-131.30534995 23.61888228 -127.38243444 22.16537678 -123.46484375 20.67578125 C-119.32696448 19.10006984 -115.19997083 17.49774936 -111.07421875 15.890625 C-110.31818359 15.59655762 -109.56214844 15.30249023 -108.78320312 14.99951172 C-104.85281389 13.47056713 -100.92369857 11.93842709 -96.99609375 10.40234375 C-89.76621651 7.57789171 -82.54250972 4.76235416 -75.21875 2.1875 C-72.66481118 1.2292654 -70.17640384 0.14715909 -67.67358398 -0.93603516 C-42.51965926 -11.43958947 -25.03641363 -11.00712016 0 0 Z " fill="#D93024" transform="translate(219.76171875,13.734375)"/>
<path d="M0 0 C0.23309664 4.20739429 0.37467326 8.41312638 0.5 12.625 C0.56703125 13.81480469 0.6340625 15.00460938 0.703125 16.23046875 C0.89480028 24.8079377 0.89480028 24.8079377 -1.52197266 28.02758789 C-3.60124303 29.64698521 -5.63854399 30.83394885 -8 32 C-8.66676758 32.36609375 -9.33353516 32.7321875 -10.02050781 33.109375 C-12.10917841 34.21328476 -14.22507919 35.20849519 -16.375 36.1875 C-17.18316162 36.56277832 -17.99132324 36.93805664 -18.82397461 37.32470703 C-30.09189692 42.49926008 -41.56035184 47.22174444 -53 52 C-66.78258115 57.77225864 -80.51338068 63.56320442 -94 70 C-97.65467368 71.69387966 -101.32368556 73.35367161 -105 75 C-105.63115723 75.28407715 -106.26231445 75.5681543 -106.91259766 75.86083984 C-109.02271021 76.80842979 -111.13597013 77.7486855 -113.25 78.6875 C-113.91185303 78.98527344 -114.57370605 79.28304687 -115.25561523 79.58984375 C-125.54155784 84.12870773 -136.38827015 85.90285846 -147.14453125 81.80078125 C-149.07953904 80.79224778 -150.99619872 79.74785295 -152.89453125 78.671875 C-156.38616706 76.79210126 -159.96686817 75.40289935 -163.6875 74.0625 C-174.49610632 70.12206514 -185.15891868 65.85672425 -195.5625 60.9375 C-200.09408332 58.80860574 -204.67184316 56.95771495 -209.375 55.25 C-219.16948451 51.67685821 -228.6887919 47.48503444 -238.20849609 43.24169922 C-240.01599493 42.43769895 -241.82607309 41.63946227 -243.63916016 40.84814453 C-246.01656368 39.80979698 -248.38425791 38.75209687 -250.75 37.6875 C-251.79498657 37.23624756 -251.79498657 37.23624756 -252.86108398 36.77587891 C-255.69005829 35.47645597 -257.82262262 34.19275485 -259.9375 31.89453125 C-261.51730765 27.59071702 -261.35537719 23.54439137 -261.25 19 C-261.24484375 18.11054688 -261.2396875 17.22109375 -261.234375 16.3046875 C-261.18363099 12.0548763 -260.91913232 8.1628037 -260 4 C-259.08790771 4.47381104 -258.17581543 4.94762207 -257.23608398 5.43579102 C-246.07011028 11.16542232 -234.64088117 16.10790565 -223.0625 20.9375 C-221.09456802 21.76296848 -219.12679743 22.58882183 -217.15917969 23.41503906 C-211.10988765 25.95242034 -205.05569916 28.47795386 -199 31 C-198.03334412 31.40269104 -197.06668823 31.80538208 -196.07073975 32.22027588 C-184.14625609 37.18630621 -172.21444576 42.13452445 -160.27368164 47.0612793 C-157.90261876 48.04020518 -155.53233923 49.02101218 -153.16210938 50.00195312 C-151.61330212 50.64197759 -150.06447477 51.28195342 -148.515625 51.921875 C-147.8020282 52.21757385 -147.0884314 52.51327271 -146.35321045 52.81793213 C-137.04621623 56.65867501 -128.52927898 57.66428869 -118.875 54.0625 C-113.00645873 51.56421769 -107.27446057 48.76681512 -101.53198242 45.9934082 C-93.18722214 42.00347737 -84.69481812 38.37568314 -76.1875 34.75 C-75.43618805 34.42966797 -74.6848761 34.10933594 -73.91079712 33.77929688 C-70.85512861 32.47685004 -67.79918591 31.17505022 -64.74278259 29.87432861 C-53.57012127 25.11791817 -42.42634374 20.29502924 -31.296875 15.43847656 C-29.159774 14.50602699 -27.02180478 13.57556379 -24.8828125 12.64746094 C-22.10551283 11.4402196 -19.3332335 10.22222133 -16.5625 9 C-15.78205322 8.66242676 -15.00160645 8.32485352 -14.19750977 7.97705078 C-10.56861049 6.36070633 -3.36486344 0 0 0 Z " fill="#A62316" transform="translate(310,144)"/>
<path d="M0 0 C0.33 0 0.66 0 1 0 C1.23309664 4.20739429 1.37467326 8.41312638 1.5 12.625 C1.56703125 13.81480469 1.6340625 15.00460938 1.703125 16.23046875 C1.72890625 17.38417969 1.7546875 18.53789063 1.78125 19.7265625 C1.82314453 20.78439941 1.86503906 21.84223633 1.90820312 22.93212891 C0.31388795 28.31765701 -4.3411307 30.51196974 -9.05163574 33.14819336 C-11.17776945 34.23509009 -13.3259698 35.24296478 -15.5 36.23046875 C-16.31259277 36.60729294 -17.12518555 36.98411713 -17.96240234 37.37236023 C-27.50395814 41.75835993 -37.16795206 45.86801897 -46.83444214 49.96914673 C-52.23839274 52.26239646 -57.63675681 54.56871941 -63.03515625 56.875 C-64.08469986 57.32317581 -65.13424347 57.77135162 -66.21559143 58.23310852 C-74.31786477 61.69739632 -82.39143859 65.21953699 -90.4375 68.8125 C-91.47495361 69.27551514 -92.51240723 69.73853027 -93.58129883 70.21557617 C-98.17084359 72.26985747 -102.75229709 74.34114292 -107.328125 76.42578125 C-108.15642822 76.80049561 -108.98473145 77.17520996 -109.83813477 77.5612793 C-111.32054638 78.23246992 -112.8005611 78.90900365 -114.27709961 79.59301758 C-123.25669731 83.65465539 -131.3673243 85.25265938 -140.90771484 82.01245117 C-148.66704721 78.97547694 -156.31441033 75.73779606 -163.9375 72.375 C-178.35571469 66.05407178 -192.90102358 60.05197595 -207.46240234 54.0697937 C-219.55111027 49.10234558 -231.62422705 44.12311336 -243.54663086 38.76489258 C-247.98278064 36.78749801 -252.29284315 35.20969544 -257 34 C-257 33.34 -257 32.68 -257 32 C-257.66 32 -258.32 32 -259 32 C-259 22.43 -259 12.86 -259 3 C-254.05 5.97 -254.05 5.97 -249 9 C-247.18452877 9.92675315 -245.35065158 10.81995459 -243.48828125 11.6484375 C-242.5039209 12.08784668 -241.51956055 12.52725586 -240.50537109 12.97998047 C-238.9248999 13.67051514 -238.9248999 13.67051514 -237.3125 14.375 C-235.59281006 15.13321045 -235.59281006 15.13321045 -233.83837891 15.90673828 C-221.94085076 21.12224799 -209.90717742 26.01218538 -197.87670898 30.91088867 C-185.49750518 35.95398841 -173.17711372 41.12318676 -160.89404297 46.39599609 C-154.94713762 48.94472406 -148.98471895 51.45425266 -142.9765625 53.85546875 C-141.97963379 54.25531982 -140.98270508 54.6551709 -139.95556641 55.06713867 C-127.07131058 59.13377848 -116.05346742 53.44751309 -104.66136169 47.96969604 C-94.73616214 43.20470343 -84.69453602 38.77609127 -74.55700684 34.48452759 C-69.99613485 32.5527085 -65.44163019 30.60597829 -60.88671875 28.66015625 C-59.97141388 28.26936386 -59.05610901 27.87857147 -58.11306763 27.47593689 C-49.85538232 23.94649782 -41.61750137 20.37319829 -33.39749146 16.75689697 C-31.99465059 16.13997314 -30.59125161 15.52431646 -29.18722534 14.91009521 C-13.54579415 8.98922807 -13.54579415 8.98922807 0 0 Z " fill="#A41E10" transform="translate(309,101)"/>
<path d="M0 0 C0.33 0 0.66 0 1 0 C1.20397024 4.20761464 1.32786067 8.41395457 1.4375 12.625 C1.52547852 14.40970703 1.52547852 14.40970703 1.61523438 16.23046875 C1.63779297 17.38417969 1.66035156 18.53789063 1.68359375 19.7265625 C1.72025146 20.78439941 1.75690918 21.84223633 1.79467773 22.93212891 C0.59524787 27.56255462 -2.07773751 29.44335383 -6 32 C-9.55663486 33.94930199 -13.21144665 35.60162944 -16.92578125 37.2265625 C-17.97711746 37.69712067 -19.02845367 38.16767883 -20.11164856 38.65249634 C-23.40094579 40.11776781 -26.69841169 41.56265657 -30 43 C-31.01640564 43.44275269 -32.03281128 43.88550537 -33.08001709 44.3416748 C-39.07469209 46.94349427 -45.0838007 49.51047931 -51.0993042 52.0637207 C-71.20039557 60.59884822 -91.2084838 69.30333039 -111.06103516 78.40307617 C-112.5312915 79.07560425 -112.5312915 79.07560425 -114.03125 79.76171875 C-114.90072266 80.16092529 -115.77019531 80.56013184 -116.66601562 80.97143555 C-127.80623982 85.88082514 -135.96634851 84.08308136 -147 80 C-151.33122382 78.23317485 -155.60187051 76.33988995 -159.875 74.4375 C-173.30936147 68.51719446 -186.85828694 62.89127788 -200.4375 57.3125 C-226.65117053 46.53952326 -226.65117053 46.53952326 -239.45874023 40.8527832 C-243.62144463 39.00688005 -247.77589729 37.2929206 -252.08251953 35.80859375 C-254.50790204 34.78581977 -256.7428957 33.35426258 -259 32 C-258.67 23.09 -258.34 14.18 -258 5 C-255.33550781 6.28777344 -252.67101562 7.57554688 -249.92578125 8.90234375 C-238.84300627 14.18847079 -227.53868282 18.88890679 -216.1875 23.5625 C-213.01919901 24.87324624 -209.85161956 26.18572523 -206.68409729 27.49835205 C-204.55478804 28.38067244 -202.42526192 29.26246964 -200.29551697 30.14373779 C-189.38488637 34.6607801 -178.50398015 39.24767408 -167.62997437 43.8520813 C-160.01748347 47.07516742 -152.3974188 50.27754169 -144.734375 53.37890625 C-143.5494043 53.8591626 -142.36443359 54.33941895 -141.14355469 54.83422852 C-131.65729131 58.3521617 -123.47979914 56.60149433 -114.19116211 52.87231445 C-111.20800906 51.5014915 -108.25908875 50.07274985 -105.3125 48.625 C-91.88638551 42.20816898 -78.25366898 36.32671584 -64.5625 30.5 C-44.66430631 22.03432292 -44.66430631 22.03432292 -24.85641479 13.36035156 C-23.13931391 12.59666333 -21.41944872 11.8391996 -19.69946289 11.08203125 C-9.15550031 6.64259246 -9.15550031 6.64259246 0 0 Z " fill="#A41E10" transform="translate(309,56)"/>
<path d="M0 0 C0 0.66 0 1.32 0 2 C0.66 2 1.32 2 2 2 C2.87214259 5.01090224 3.12557726 7.68967799 3.12698364 10.81994629 C3.13121338 12.27096489 3.13121338 12.27096489 3.13552856 13.751297 C3.13249222 15.33330147 3.13249222 15.33330147 3.12939453 16.94726562 C3.13202301 18.62099495 3.13202301 18.62099495 3.13470459 20.32853699 C3.13910994 24.02112376 3.13618971 27.71366273 3.1328125 31.40625 C3.13348592 33.96927907 3.13445626 36.53230807 3.13571167 39.09533691 C3.13718686 44.4686754 3.13513506 49.84199588 3.13037109 55.21533203 C3.12492906 61.42513013 3.12669193 67.6348954 3.1321975 73.84469271 C3.13728421 79.82157119 3.13674333 85.79843363 3.13381577 91.77531433 C3.13314783 94.3174795 3.13397028 96.8596455 3.13629532 99.40180969 C3.13882968 102.95214063 3.13497008 106.50240817 3.12939453 110.05273438 C3.13141876 111.10740402 3.13344299 112.16207367 3.13552856 113.248703 C3.13270874 114.21604874 3.12988892 115.18339447 3.12698364 116.18005371 C3.1264181 117.43880436 3.1264181 117.43880436 3.12584114 118.72298431 C3.00320674 120.94197606 2.61690666 122.87025005 2 125 C1.34 125 0.68 125 0 125 C0 125.66 0 126.32 0 127 C-4.62663171 129.53718513 -9.02664188 129.43894629 -14 128 C-17.0625 125.4375 -17.0625 125.4375 -19 123 C-19.53367187 123.26554687 -20.06734375 123.53109375 -20.6171875 123.8046875 C-29.62334541 128.07404263 -38.0790739 129.46067319 -48 129 C-49.258125 128.979375 -50.51625 128.95875 -51.8125 128.9375 C-60.79661648 127.65927205 -69.71383613 121.28616387 -76 115 C-76 114.34 -76 113.68 -76 113 C-76.66 113 -77.32 113 -78 113 C-80.29648649 110.4385343 -81 109.52032428 -81 106 C-81.66 106 -82.32 106 -83 106 C-88.77450323 93.54357161 -90.35547592 79.75216905 -86.875 66.3125 C-85.02641719 61.38294583 -82.17911549 57.16627361 -79 53 C-78.52433594 52.3709375 -78.04867187 51.741875 -77.55859375 51.09375 C-70.32075021 42.1006801 -61.29093967 37.28781431 -50 35 C-38.85447553 33.83258341 -29.54898072 35.18487768 -20 41 C-19.98541748 39.93563721 -19.97083496 38.87127441 -19.95581055 37.7746582 C-19.8977022 33.81403531 -19.82047055 29.85397352 -19.73754883 25.89379883 C-19.70435831 24.18197762 -19.67630811 22.47004852 -19.65356445 20.75805664 C-19.61990968 18.29266521 -19.56759026 15.82825719 -19.51171875 13.36328125 C-19.50532883 12.60163162 -19.4989389 11.83998199 -19.49235535 11.05525208 C-19.36853536 6.54906747 -18.81987986 3.56406656 -16 0 C-9.96602234 -3.8617457 -6.3588487 -2.81173582 0 0 Z M-61.9375 66 C-65.60040039 71.32785512 -66.29299056 76.1009025 -66.3125 82.5 C-66.32925781 83.7684375 -66.34601563 85.036875 -66.36328125 86.34375 C-65.85353371 91.47411234 -63.81732346 94.77401481 -61 99 C-60.34 99 -59.68 99 -59 99 C-59 99.66 -59 100.32 -59 101 C-57.3508865 102.33355268 -57.3508865 102.33355268 -55.25 103.5625 C-54.55390625 103.99691406 -53.8578125 104.43132812 -53.140625 104.87890625 C-47.24664352 107.96571772 -40.71480711 107.68357689 -34.4375 105.9375 C-27.85267244 103.51927885 -22.93405419 98.17900481 -19.71875 92.01171875 C-17.3435911 85.36385552 -17.07716757 77.49665935 -20 71 C-23.68466356 64.95138061 -28.3126601 59.70218488 -35 57 C-46.4879697 55.60913987 -54.01132215 57.3657198 -61.9375 66 Z " fill="#6E6F71" transform="translate(237,230)"/>
<path d="M0 0 C3.40592444 2.42078933 6.3537319 5.04119354 9.1875 8.125 C9.785625 8.681875 10.38375 9.23875 11 9.8125 C12.1875 11.125 12.1875 11.125 12.1875 13.125 C12.8475 13.125 13.5075 13.125 14.1875 13.125 C17.18661502 17.2044414 18.52183915 21.70853251 19.9375 26.5 C20.17082031 27.22960937 20.40414062 27.95921875 20.64453125 28.7109375 C22.0781112 33.51815169 22.39761667 37.13559589 21.1875 42.125 C19.36410948 44.83067626 18.11292564 46.66228718 15.1875 48.125 C13.21643455 48.2163666 11.24222084 48.24251968 9.26904297 48.23852539 C8.02790741 48.23844986 6.78677185 48.23837433 5.50802612 48.23829651 C4.14857951 48.2331895 2.78913331 48.2279735 1.4296875 48.22265625 C0.04249116 48.22079142 -1.34470584 48.21936782 -2.73190308 48.21836853 C-6.38484512 48.21454848 -10.03774748 48.20472255 -13.69067383 48.19366455 C-17.41747501 48.18343944 -21.14428259 48.17886855 -24.87109375 48.17382812 C-32.18491394 48.16309983 -39.49870141 48.14602954 -46.8125 48.125 C-46.06942811 49.7251281 -45.3128548 51.31899011 -44.55078125 52.91015625 C-44.13094971 53.79840088 -43.71111816 54.68664551 -43.27856445 55.60180664 C-39.94578938 61.33773176 -33.9933485 64.64426854 -27.80078125 66.65234375 C-19.02047861 68.73960626 -11.26385007 65.52188081 -3.5625 61.375 C0.55853274 59.5018033 4.20526476 59.48211289 8.5 60.875 C11.53632129 63.12412688 12.06767893 65.33760439 12.625 69 C11.91016611 74.10595639 9.02671182 76.66287997 5.16796875 79.73046875 C-5.6518947 87.40480272 -17.74105391 88.97312178 -30.78125 87.875 C-42.86032158 85.73440504 -52.63655648 80.622418 -60.0625 70.8125 C-68.18137548 59.04809024 -71.02990012 47.41018879 -69.8125 33.125 C-67.93935491 23.35548282 -63.59849011 12.72475893 -55.8125 6.125 C-55.1525 6.125 -54.4925 6.125 -53.8125 6.125 C-53.8125 5.465 -53.8125 4.805 -53.8125 4.125 C-39.46129542 -8.51772785 -16.04356012 -10.17140739 0 0 Z M-44.8125 23.125 C-47.09164506 26.90369436 -47.09164506 26.90369436 -47.8125 31.125 C-31.6425 31.125 -15.4725 31.125 1.1875 31.125 C-0.36073679 24.93205285 -4.66743317 20.17710034 -10.015625 16.6875 C-22.45904451 10.41970351 -35.74448041 11.85867263 -44.8125 23.125 Z " fill="#6A6B6D" transform="translate(124.8125,270.875)"/>
<path d="M0 0 C2.6229077 2.29397628 3.50485416 3.76125928 4.3984375 7.09765625 C4.32120571 11.42263668 3.84527453 13.51038472 1.2109375 16.97265625 C-2.00443417 19.40204818 -3.58255817 20.09765625 -7.6015625 20.09765625 C-11.42576279 18.77656888 -14.80983396 17.00220623 -18.2890625 14.97265625 C-23.72040228 11.89831298 -28.5772188 11.1882405 -34.796875 12.59375 C-37.85674674 13.52419706 -37.85674674 13.52419706 -40.6015625 15.09765625 C-41.38392066 17.64756488 -41.38392066 17.64756488 -41.6015625 20.09765625 C-34.98136074 22.57533531 -28.52176608 24.98574764 -21.6015625 26.47265625 C-12.63460796 28.61222449 -2.18886676 32.62608353 3.35546875 40.37109375 C7.66129315 47.49908771 8.58919286 53.75244579 7.3984375 62.09765625 C4.01744404 71.33135429 -3.29653562 76.86969451 -11.6640625 81.47265625 C-15.55225979 83.26367626 -19.34390892 83.92341064 -23.6015625 84.09765625 C-24.47039062 84.13761719 -25.33921875 84.17757812 -26.234375 84.21875 C-39.81267098 84.54024169 -50.03417083 79.77009967 -61.6015625 73.09765625 C-61.6015625 72.43765625 -61.6015625 71.77765625 -61.6015625 71.09765625 C-62.2615625 71.09765625 -62.9215625 71.09765625 -63.6015625 71.09765625 C-66.08836353 67.3674547 -66.16083618 63.42557408 -65.6015625 59.09765625 C-63.93059463 55.25443014 -62.4597374 53.62702288 -58.6015625 52.09765625 C-52.61682326 51.77647168 -49.08551357 53.17419906 -44.6015625 57.09765625 C-38.1898918 60.70737637 -31.51595355 63.04933198 -24.140625 61.62109375 C-20.66816128 60.5984588 -18.19504408 59.65516925 -15.5390625 57.16015625 C-14.32569387 54.86834045 -14.32569387 54.86834045 -14.6015625 51.09765625 C-18.68819111 49.3181224 -22.84056725 48.23997964 -27.1640625 47.22265625 C-41.43274921 43.73225063 -54.57078773 40.42904239 -62.73828125 27.265625 C-64.94372355 21.72707081 -64.43200511 14.89412345 -62.76171875 9.26953125 C-59.08576928 1.19977013 -53.50587494 -3.91474068 -45.3515625 -7.27734375 C-28.87522101 -13.31167264 -14.26072878 -9.41357818 0 0 Z " fill="#6F6F71" transform="translate(350.6015625,274.90234375)"/>
<path d="M0 0 C3.22438503 1.75117463 5.54783347 3.80498846 6.875 7.3125 C6.91625 7.869375 6.9575 8.42625 7 9 C7.69996094 8.39671875 8.39992188 7.7934375 9.12109375 7.171875 C16.42866922 1.65896867 25.28586951 -0.88538648 34.390625 -0.5 C38.50796404 0.28895119 40.25183084 1.88045663 43 5 C44.43304064 7.86608129 44.30644155 9.81300783 44 13 C42.32215516 16.23140487 41.04057045 18.38789974 37.875 20.25 C35 21 35 21 32.66796875 21.37890625 C26.54727344 22.39749273 23.49907914 23.72587482 19 28 C18.34 28 17.68 28 17 28 C16.01 30.475 16.01 30.475 15 33 C14.34 33 13.68 33 13 33 C12.896875 33.556875 12.79375 34.11375 12.6875 34.6875 C12 37 12 37 10.5625 39.375 C7.07242639 45.23832366 6.68781167 50.62321956 6.62109375 57.265625 C6.60409927 58.14023376 6.5871048 59.01484253 6.56959534 59.91595459 C6.51671272 62.69389751 6.47625961 65.47182699 6.4375 68.25 C6.39355383 71.04238271 6.34689565 73.83465122 6.29469299 76.62689209 C6.26275975 78.36073169 6.23586219 80.09467272 6.21446228 81.82867432 C6.11177018 87.77645964 6.11177018 87.77645964 5 90 C4.34 90 3.68 90 3 90 C3 90.66 3 91.32 3 92 C-0.87502028 94.05860452 -3.89452711 94.27292222 -8.1328125 93.6171875 C-11.15995215 92.61658485 -12.38856963 90.64274581 -14 88 C-15.49180683 85.01638633 -15.14733943 81.96394286 -15.14526367 78.69213867 C-15.14862228 77.93909958 -15.1519809 77.18606049 -15.15544128 76.41020203 C-15.16496473 73.91277429 -15.16689526 71.41541353 -15.16796875 68.91796875 C-15.17118095 67.1840258 -15.174545 65.45008312 -15.17805481 63.71614075 C-15.18404998 60.07694877 -15.18589437 56.43778055 -15.18530273 52.79858398 C-15.18520122 48.13794102 -15.19884017 43.47745078 -15.21607494 38.81684399 C-15.22720186 35.23345746 -15.22922171 31.65010774 -15.22869301 28.0667057 C-15.22987259 26.34873237 -15.23429315 24.63075808 -15.24202538 22.91280174 C-15.25183686 20.507108 -15.24894244 18.10174412 -15.24291992 15.69604492 C-15.24853943 14.98780579 -15.25415894 14.27956665 -15.25994873 13.54986572 C-15.23485362 9.59944972 -14.84364602 6.51741332 -13 3 C-9.14762118 -0.28585252 -4.91103772 -1.03592202 0 0 Z " fill="#6B6C6E" transform="translate(18,265)"/>
<path d="M0 0 C4.56944444 2.13888889 4.56944444 2.13888889 6 5 C6.15459712 6.66674451 6.25000502 8.33913739 6.31640625 10.01171875 C6.35846191 11.06367432 6.40051758 12.11562988 6.44384766 13.19946289 C6.48300293 14.35051514 6.5221582 15.50156738 6.5625 16.6875 C6.6042334 17.88560303 6.6459668 19.08370605 6.68896484 20.31811523 C7.1388541 34.54655142 7.17096149 48.76654638 7 63 C6.98743164 64.26618164 6.97486328 65.53236328 6.96191406 66.83691406 C6.91592824 70.4547786 6.83924641 74.07047058 6.75 77.6875 C6.73598145 78.77426025 6.72196289 79.86102051 6.70751953 80.98071289 C6.65893799 82.48106079 6.65893799 82.48106079 6.609375 84.01171875 C6.5779541 85.31822388 6.5779541 85.31822388 6.54589844 86.65112305 C5.82352377 89.75933713 4.42829072 90.99464717 2 93 C-2.14459792 94.35681828 -5.84663012 94.47639191 -9.875 92.8125 C-13.32605418 89.86895379 -14.86925253 88.20416157 -15.3742218 83.55348206 C-15.38896284 82.16016287 -15.38717917 80.76660888 -15.37231445 79.37329102 C-15.37596512 78.6102063 -15.37961578 77.84712158 -15.38337708 77.06091309 C-15.39147429 74.54168348 -15.37787841 72.02309884 -15.36328125 69.50390625 C-15.36276249 67.75040182 -15.36328081 65.9968968 -15.36479187 64.24339294 C-15.36470218 60.56899326 -15.35428042 56.89481312 -15.33618164 53.22045898 C-15.31351136 48.51500246 -15.31294773 43.80986716 -15.31969929 39.10437107 C-15.32304429 35.483222 -15.31639887 31.86214589 -15.30657005 28.24101067 C-15.30272568 26.50630004 -15.30156667 24.7715813 -15.3031559 23.03686714 C-15.30352761 20.60978931 -15.29087645 18.18311987 -15.2746582 15.75610352 C-15.27713562 15.04165573 -15.27961304 14.32720795 -15.28216553 13.59111023 C-15.24004456 9.63269743 -14.84766425 6.52513061 -13 3 C-9.02489092 -0.39053421 -5.01458974 -0.76991681 0 0 Z " fill="#6A6B6C" transform="translate(269,265)"/>
<path d="M0 0 C1.69286133 -0.01160156 1.69286133 -0.01160156 3.41992188 -0.0234375 C13.69751661 0.00047779 24.18373348 0.9056668 32.125 8.125 C33.0625 10.25 33.0625 10.25 33.25 13.1875 C31.46030597 17.8030267 28.47329897 19.27007267 24.0625 21.25 C8.03958677 26.84640882 -9.24966528 27.01199772 -24.9375 20.25 C-28.42027579 18.43289959 -29.73066541 17.56025189 -31.9375 14.25 C-31.7769767 11.11979559 -31.20496282 9.58680504 -29.25 7.125 C-20.56259748 0.08116012 -10.66556681 -0.07284394 0 0 Z " fill="#FDFCFC" transform="translate(125.9375,43.75)"/>
<path d="M0 0 C1.02150398 0.39740639 1.02150398 0.39740639 2.06364441 0.80284119 C4.22493606 1.64468024 6.3839602 2.49216882 8.54296875 3.33984375 C10.01352549 3.91378668 11.48422715 4.48735843 12.95507812 5.06054688 C16.54856703 6.46185423 20.14003402 7.86823041 23.73046875 9.27734375 C23.73046875 9.93734375 23.73046875 10.59734375 23.73046875 11.27734375 C23.00569336 11.55408936 22.28091797 11.83083496 21.53417969 12.1159668 C18.18223248 13.39707611 14.83134909 14.68094666 11.48046875 15.96484375 C10.3409375 16.39990234 9.20140625 16.83496094 8.02734375 17.28320312 C6.89296875 17.71826172 5.75859375 18.15332031 4.58984375 18.6015625 C3.44193359 19.03404297 2.29402344 19.46652344 1.11132812 19.91210938 C-2.26794357 21.22001491 -2.26794357 21.22001491 -5.38476562 22.86132812 C-10.87336613 25.59309733 -14.28432158 26.83052054 -20.26953125 24.97265625 C-22.28726488 24.1585265 -24.28760915 23.30014163 -26.26953125 22.40234375 C-27.31173828 21.96994385 -28.35394531 21.53754395 -29.42773438 21.09204102 C-32.39153113 19.85550386 -35.32990329 18.57000204 -38.26953125 17.27734375 C-39.67331881 16.69455371 -41.07920649 16.11676277 -42.48828125 15.546875 C-45.09720207 14.48777738 -47.68907419 13.40346426 -50.26953125 12.27734375 C-47.10927872 10.17050873 -44.11952963 8.92699001 -40.58984375 7.52734375 C-39.61517654 7.1391748 -39.61517654 7.1391748 -38.62081909 6.74316406 C-36.54666546 5.91796951 -34.47064782 5.09758549 -32.39453125 4.27734375 C-31.00508173 3.72557913 -29.61575739 3.17349916 -28.2265625 2.62109375 C-25.66629276 1.60350688 -23.10518347 0.58814319 -20.54345703 -0.42578125 C-18.55512704 -1.21340309 -16.58283955 -2.04598585 -14.64794922 -2.95703125 C-9.55546384 -4.59632853 -4.7551342 -1.87589547 0 0 Z " fill="#AD2014" transform="translate(252.26953125,43.72265625)"/>
<path d="M0 0 C-1.37754738 3.90188547 -3.1893777 6.83670542 -5.6875 10.125 C-9.7480642 15.58115116 -13.42177128 21.21892423 -17 27 C-28.75129975 23.28906324 -40.06533053 18.56450005 -51.1953125 13.296875 C-53.76864855 12.10697588 -56.357699 11.02594837 -59 10 C-55.93497392 8.27650916 -53.27205431 7.57293192 -49.80078125 7.0703125 C-48.25124756 6.83973145 -48.25124756 6.83973145 -46.67041016 6.60449219 C-45.5622998 6.44625977 -44.45418945 6.28802734 -43.3125 6.125 C-40.97252469 5.77953576 -38.63268435 5.4331563 -36.29296875 5.0859375 C-35.0920459 4.90901367 -33.89112305 4.73208984 -32.65380859 4.54980469 C-25.73273289 3.50835991 -18.82778127 2.36378928 -11.9230957 1.21923828 C-10.94042725 1.0592334 -9.95775879 0.89922852 -8.9453125 0.734375 C-7.65391357 0.52119629 -7.65391357 0.52119629 -6.33642578 0.30371094 C-4 0 -4 0 0 0 Z " fill="#FCFAFA" transform="translate(203,69)"/>
<path d="M0 0 C3.55692683 0.5917719 6.43686505 1.5883362 9.6875 3.125 C18.40527035 6.67668422 26.42502226 3.90089672 35 1 C33.66666667 5 32.33333333 9 31 13 C31.85271484 13.16435547 31.85271484 13.16435547 32.72265625 13.33203125 C37.82316758 14.37938166 42.284442 15.79271753 47 18 C47 18.33 47 18.66 47 19 C44.27123692 19.33695862 41.54206837 19.66968429 38.8125 20 C38.04357422 20.09539063 37.27464844 20.19078125 36.48242188 20.2890625 C32.63071189 20.75192894 28.88829149 21.12467468 25 21 C24.70996094 21.92232422 24.70996094 21.92232422 24.4140625 22.86328125 C24.15367187 23.67152344 23.89328125 24.47976562 23.625 25.3125 C23.24214844 26.51326172 23.24214844 26.51326172 22.8515625 27.73828125 C22 30 22 30 20 33 C19.67773438 32.08476563 19.35546875 31.16953125 19.0234375 30.2265625 C16.39878283 24.44127688 16.39878283 24.44127688 12 20 C5.61584447 18.01334833 -1.24608588 18.13165312 -7.88037109 18.2043457 C-10 18 -10 18 -12 16 C-6.72 14.02 -1.44 12.04 4 10 C3.34 8.35 2.68 6.7 2 5 C1 2.5 1 2.5 0 0 Z " fill="#FCFAFA" transform="translate(166,18)"/>
<path d="M0 0 C11.18152524 3.35445757 11.18152524 3.35445757 15.8125 5.375 C22.14622876 8.08474872 28.55880281 10.55857848 35 13 C35 13.66 35 14.32 35 15 C30.85548003 16.60757412 26.70915229 18.21043498 22.5625 19.8125 C21.39783203 20.26431641 20.23316406 20.71613281 19.03320312 21.18164062 C17.88916016 21.62314453 16.74511719 22.06464844 15.56640625 22.51953125 C14.52427979 22.92276611 13.48215332 23.32600098 12.40844727 23.74145508 C8.30620797 25.25617777 4.14855117 26.61714961 0 28 C0 18.76 0 9.52 0 0 Z " fill="#7A0B00" transform="translate(241,40)"/>
<path d="M0 0 C3.29422266 3.85894655 3.3173382 7.60573592 3.1875 12.5625 C2.51673365 16.72125136 1.82301324 18.83352894 -0.9375 22 C-4.7161863 24.05363386 -7.6016669 24.2614642 -11.8125 23.5625 C-14.91519898 22.28095042 -16.3289134 21.32242181 -18.125 18.5 C-19.38128798 13.13222409 -19.6394488 7.84877021 -17.75 2.625 C-12.41816299 -3.0508265 -6.62451726 -3.38586438 0 0 Z " fill="#6E6F71" transform="translate(272.8125,229.4375)"/>
<path d="M0 0 C1.9375 0.6875 1.9375 0.6875 4 2 C5.66597707 7.85781126 5.00718637 13.98122125 4.8125 20 C4.79380859 21.175625 4.77511719 22.35125 4.75585938 23.5625 C4.70075195 25.2640625 4.70075195 25.2640625 4.64453125 27 C4.61721924 28.03125 4.58990723 29.0625 4.56176758 30.125 C3.74135744 34.32367438 1.49095746 36.79877008 -1.7890625 39.44140625 C-6.16616589 42.11423322 -10.55936557 44.14380892 -15.3515625 45.96484375 C-19.05778311 47.4134403 -22.6514759 49.08300478 -26.26171875 50.75390625 C-32.3741191 53.53544079 -38.58559861 56.10311488 -44.765625 58.73046875 C-45.59850037 59.08458328 -46.43137573 59.43869781 -47.28948975 59.80354309 C-49.0510409 60.55243756 -50.81261772 61.30127167 -52.57421875 62.05004883 C-55.2006515 63.16652239 -57.82689104 64.28344956 -60.453125 65.40039062 C-62.18227988 66.1354444 -63.91144654 66.87047046 -65.640625 67.60546875 C-66.49693008 67.96971954 -67.35323517 68.33397034 -68.23548889 68.70925903 C-72.56226512 70.54780855 -76.89298174 72.37599789 -81.23217773 74.18505859 C-82.07766174 74.5382869 -82.92314575 74.8915152 -83.79425049 75.25544739 C-85.37757327 75.91619003 -86.9618449 76.57466618 -88.54730225 77.23027039 C-93.66251706 79.36652878 -98.62334237 81.73512412 -103.5625 84.25 C-106.04107262 85.50118194 -108.52053238 86.75059157 -111 88 C-112.34771484 88.68835938 -112.34771484 88.68835938 -113.72265625 89.390625 C-120.5815303 92.55797497 -127.52680468 92.83575396 -135 92 C-135.99 91.34 -136.98 90.68 -138 90 C-137.27296875 90.04640625 -136.5459375 90.0928125 -135.796875 90.140625 C-123.74946966 90.57309596 -114.39553926 86.32861417 -103.77514648 81.20727539 C-98.37533202 78.60913321 -92.91104538 76.2297383 -87.375 73.9375 C-81.8910439 71.66413105 -76.4784257 69.32088932 -71.125 66.75 C-62.46063487 62.63537245 -53.57323607 59.05318139 -44.69189453 55.43847656 C-36.68845135 52.16773973 -28.8295551 48.66540803 -21 45 C-19.40868494 44.27744776 -17.81635941 43.5571133 -16.22265625 42.83984375 C-14.83582566 42.20597381 -13.44910303 41.57186758 -12.0625 40.9375 C-11.36060547 40.62490234 -10.65871094 40.31230469 -9.93554688 39.99023438 C-7.91515722 39.05847376 -5.95954282 38.05290389 -4 37 C-2.85402344 36.39542969 -1.70804688 35.79085937 -0.52734375 35.16796875 C1.73727118 33.15758056 2.00361629 31.97762743 2.49584961 28.93237305 C2.63568963 25.74244562 2.66217778 22.58870726 2.5625 19.39746094 C2.49995677 17.37360098 2.48053312 15.3528574 2.46875 13.328125 C2.63743139 6.27134233 2.63743139 6.27134233 0 0 Z " fill="#F5E9E8" transform="translate(308,137)"/>
<path d="M0 0 C2.28861937 2.05793625 2.94631019 2.6548512 3.4375 5.8125 C2.88369222 9.84738523 1.61105933 11.89495647 -1 15 C-3.42166783 16.42451049 -5.57260432 16.93055715 -8.33203125 17.37890625 C-14.45272656 18.39749273 -17.50092086 19.72587482 -22 24 C-22.66 24 -23.32 24 -24 24 C-24.99 26.475 -24.99 26.475 -26 29 C-26.66 29 -27.32 29 -28 29 C-28.103125 29.556875 -28.20625 30.11375 -28.3125 30.6875 C-29 33 -29 33 -30.4375 35.375 C-33.92757361 41.23832366 -34.31218833 46.62321956 -34.37890625 53.265625 C-34.39590073 54.14023376 -34.4128952 55.01484253 -34.43040466 55.91595459 C-34.48328728 58.69389751 -34.52374039 61.47182699 -34.5625 64.25 C-34.60644617 67.04238271 -34.65310435 69.83465122 -34.70530701 72.62689209 C-34.73724025 74.36073169 -34.76413781 76.09467272 -34.78553772 77.82867432 C-34.88822982 83.77645964 -34.88822982 83.77645964 -36 86 C-36.66 86 -37.32 86 -38 86 C-38 86.66 -38 87.32 -38 88 C-42.6850826 90.48895013 -45.9511624 90.00976752 -51 89 C-51.33 88.34 -51.66 87.68 -52 87 C-51.32453125 87.03480469 -50.6490625 87.06960938 -49.953125 87.10546875 C-48.61507812 87.14607422 -48.61507812 87.14607422 -47.25 87.1875 C-46.36828125 87.22230469 -45.4865625 87.25710938 -44.578125 87.29296875 C-41.49506897 86.94262147 -40.21484036 86.14001467 -38 84 C-36.73043203 80.19129609 -36.90347484 76.63304891 -36.9296875 72.66796875 C-36.92108958 70.96418256 -36.9106086 69.26040504 -36.8984375 67.55664062 C-36.88188738 64.88842101 -36.87466619 62.22212348 -36.90039062 59.55395508 C-37.02906827 43.94155483 -34.28108847 32.41208097 -23.02734375 20.76953125 C-17.65553092 16.08083913 -12.18577348 14.56493231 -5.19921875 13.6875 C-2.27290048 12.77270068 -1.45540444 11.66824147 0 9 C0.35957889 6.64070358 0.35957889 6.64070358 0.1875 4.25 C0.16042969 3.45078125 0.13335937 2.6515625 0.10546875 1.828125 C0.05326172 0.92320312 0.05326172 0.92320312 0 0 Z " fill="#F5F3F3" transform="translate(59,269)"/>
<path d="M0 0 C0.66 0.33 1.32 0.66 2 1 C4.00465044 7.01395133 4.13907647 13.84797542 1.9765625 19.83203125 C-2.76864139 28.36553327 -10.84056658 34.66596624 -20 38 C-22.81091741 38.55296736 -25.17925999 38.88456046 -28 39 C-28.86882812 39.03996094 -29.73765625 39.07992187 -30.6328125 39.12109375 C-40.07531229 39.34466269 -51.48983096 38.10608998 -58.7578125 31.37109375 C-59.16773438 30.91863281 -59.57765625 30.46617187 -60 30 C-55.92666772 31.32383299 -51.9219399 32.76920803 -47.9296875 34.31640625 C-38.02763253 37.82421924 -26.08734209 37.36755177 -16.375 33.5625 C-9.3176361 30.09931563 -3.93759398 25.52105263 -0.8046875 18.2109375 C0.13378449 14.46616093 0.22145369 10.95346955 0.125 7.125 C0.11597656 6.43664062 0.10695313 5.74828125 0.09765625 5.0390625 C0.07432513 3.35922162 0.03846326 1.67956254 0 0 Z " fill="#EFEDED" transform="translate(355,320)"/>
<path d="M0 0 C3 1 3 1 4 3 C4.15459712 4.66674451 4.25000502 6.33913739 4.31640625 8.01171875 C4.35846191 9.06367432 4.40051758 10.11562988 4.44384766 11.19946289 C4.48300293 12.35051514 4.5221582 13.50156738 4.5625 14.6875 C4.6042334 15.88560303 4.6459668 17.08370605 4.68896484 18.31811523 C5.1388541 32.54655142 5.17096149 46.76654638 5 61 C4.98743164 62.26618164 4.97486328 63.53236328 4.96191406 64.83691406 C4.91592824 68.4547786 4.83924641 72.07047058 4.75 75.6875 C4.73598145 76.77426025 4.72196289 77.86102051 4.70751953 78.98071289 C4.65893799 80.48106079 4.65893799 80.48106079 4.609375 82.01171875 C4.5779541 83.31822388 4.5779541 83.31822388 4.54589844 84.65112305 C3.82330423 87.76028174 2.43150523 88.99663638 0 91 C-2.21875 91.6796875 -2.21875 91.6796875 -4.5 91.875 C-5.62921875 91.99488281 -5.62921875 91.99488281 -6.78125 92.1171875 C-9.31001568 91.98362593 -10.83332089 91.27046184 -13 90 C-10.09224941 88.54612471 -7.39561107 88.97803991 -4.19140625 89.0625 C-1.81980059 89.1005187 -1.81980059 89.1005187 1 88 C2.61387151 84.29111038 2.13253288 79.99623046 2.11352539 76.01855469 C2.11367142 75.2181778 2.11381744 74.4178009 2.1139679 73.59317017 C2.1132723 70.95271069 2.1054964 68.31232212 2.09765625 65.671875 C2.09579082 63.83913207 2.09436751 62.00638863 2.09336853 60.17364502 C2.08955322 55.35350158 2.07973133 50.53338835 2.06866455 45.71325684 C2.05842925 40.79321705 2.05386637 35.87317237 2.04882812 30.953125 C2.03810819 21.30207007 2.02104359 11.65103755 2 2 C1.34 2 0.68 2 0 2 C0 1.34 0 0.68 0 0 Z " fill="#E7E3E3" transform="translate(271,267)"/>
<path d="M0 0 C-3.71227682 1.23742561 -4.49236583 0.44982212 -8 -1 C-15.26985086 -2.06088453 -20.57105492 -0.80123331 -26.90625 2.80859375 C-29 4 -29 4 -32 5 C-33.07254351 7.26225382 -33.07254351 7.26225382 -34 10 C-34.99 11.98 -35.98 13.96 -37 16 C-20.83 16 -4.66 16 12 16 C12.495 14.515 12.495 14.515 13 13 C13 14.32 13 15.64 13 17 C-3.83 17 -20.66 17 -38 17 C-39 13 -39 13 -38.06640625 10.8515625 C-33.66632925 4.33716278 -28.85163981 -1.06965877 -21.125 -3.4375 C-13.62276607 -4.88193797 -6.72814411 -3.36407206 0 0 Z " fill="#DFDEDE" transform="translate(114,286)"/>
<path d="M0 0 C3.45697546 3.45697546 4.08966129 8.29875079 5 13 C4.91336899 18.37112271 3.73825551 21.14846402 0 25 C-2.72478152 26.36239076 -4.86840855 26.11969958 -7.91845703 26.11352539 C-9.15959259 26.11344986 -10.40072815 26.11337433 -11.67947388 26.11329651 C-13.03892049 26.1081895 -14.39836669 26.1029735 -15.7578125 26.09765625 C-17.14500884 26.09579142 -18.53220584 26.09436782 -19.91940308 26.09336853 C-23.57234512 26.08954848 -27.22524748 26.07972255 -30.87817383 26.06866455 C-34.60497501 26.05843944 -38.33178259 26.05386855 -42.05859375 26.04882812 C-49.37241394 26.03809983 -56.68620141 26.02102954 -64 26 C-63.01 28.97 -62.02 31.94 -61 35 C-64.34905453 31.65094547 -64.89470285 29.50621146 -66 25 C-65.24689041 24.99191315 -64.49378082 24.98382629 -63.71784973 24.97549438 C-56.61136248 24.89746846 -49.50506373 24.81015377 -42.39882374 24.71247292 C-38.74565726 24.66258312 -35.09251866 24.61625271 -31.43920898 24.578125 C-27.91182174 24.54117936 -24.38467205 24.49479479 -20.85748863 24.44193649 C-18.86070403 24.41445709 -16.86379345 24.39668716 -14.86689758 24.37905884 C-13.64600937 24.35918915 -12.42512115 24.33931946 -11.16723633 24.31884766 C-9.55840324 24.29886215 -9.55840324 24.29886215 -7.91706848 24.2784729 C-4.86747605 23.98734883 -2.71254351 23.41416495 0 22 C2.49035429 18.26446857 2.41321287 15.32284235 2 11 C1.3747292 8.65523449 0.7136591 6.31939207 0 4 C0 2.68 0 1.36 0 0 Z " fill="#F8F7F7" transform="translate(142,293)"/>
<path d="M0 0 C3 1 3 1 4.1875 2.6875 C5.26702213 5.75998606 5.45436497 7.75453592 5 11 C0.43348085 18.07073933 -7.17712216 23.09326718 -15.22265625 25.46875 C-25.06912174 27.35218081 -35.31680283 27.87878835 -45 25 C-42.15471727 24.17951476 -39.72421616 23.90765369 -36.76953125 24.0078125 C-35.56393555 24.03294922 -35.56393555 24.03294922 -34.33398438 24.05859375 C-32.67228606 24.10235653 -31.01077896 24.15424597 -29.34960938 24.21484375 C-19.53394508 24.3866374 -8.89737443 20.89244067 -1.2578125 14.5546875 C1.04338487 12.07147452 1.96828768 10.22651655 2.4375 6.875 C2.02250731 4.14790518 1.43645437 2.33423835 0 0 Z " fill="#F5F3F3" transform="translate(132,332)"/>
<path d="M0 0 C1.41152344 -0.00773437 1.41152344 -0.00773437 2.8515625 -0.015625 C5.375 0.25 5.375 0.25 8.375 2.25 C7.39660156 2.25257813 6.41820312 2.25515625 5.41015625 2.2578125 C-4.75788394 2.55775469 -10.85124295 4.35383892 -18.0625 11.75 C-21.29426141 16.92081825 -21.97143221 22.13579246 -22.25 28.125 C-22.28867188 28.81335938 -22.32734375 29.50171875 -22.3671875 30.2109375 C-22.46048166 31.89023246 -22.54378238 33.57007767 -22.625 35.25 C-25.92762137 30.29606794 -25.34776234 25.02564545 -24.625 19.25 C-22.01187514 11.65080234 -17.6636047 6.14225346 -10.625 2.25 C-6.95507513 0.50783338 -4.0556972 -0.02234544 0 0 Z " fill="#EFECEC" transform="translate(193.625,284.75)"/>
<path d="M0 0 C3 1 3 1 4 3 C4.35399665 7.55558499 4.37117141 12.11997589 4.4375 16.6875 C4.48326172 17.95529297 4.52902344 19.22308594 4.57617188 20.52929688 C4.70270233 31.04232764 4.70270233 31.04232764 1.21484375 35.2734375 C-1.80365628 38.23305165 -5.02780823 39.6494548 -9 41 C-9.33 40.34 -9.66 39.68 -10 39 C-9.37351562 38.59007812 -8.74703125 38.18015625 -8.1015625 37.7578125 C-7.28429687 37.21898437 -6.46703125 36.68015625 -5.625 36.125 C-4.81289063 35.59132812 -4.00078125 35.05765625 -3.1640625 34.5078125 C-0.92405904 33.04134945 -0.92405904 33.04134945 1 31 C1.29555291 28.02080184 1.29555291 28.02080184 1.23046875 24.53125 C1.22853516 23.23832031 1.22660156 21.94539063 1.22460938 20.61328125 C1.21840576 19.93861816 1.21220215 19.26395508 1.20581055 18.56884766 C1.18757091 16.50801218 1.18530077 14.44762647 1.18554688 12.38671875 C1.52060518 6.00674632 1.52060518 6.00674632 0 0 Z " fill="#FEFDFD" transform="translate(309,50)"/>
<path d="M0 0 C1.9375 0.6875 1.9375 0.6875 4 2 C5.66597707 7.85781126 5.00718637 13.98122125 4.8125 20 C4.79380859 21.175625 4.77511719 22.35125 4.75585938 23.5625 C4.71912109 24.696875 4.68238281 25.83125 4.64453125 27 C4.61721924 28.03125 4.58990723 29.0625 4.56176758 30.125 C3.72661105 34.39914311 1.43214018 36.89813469 -1.96484375 39.51171875 C-9.49042844 43.99726527 -9.49042844 43.99726527 -13 45 C-13.99 44.67 -14.98 44.34 -16 44 C-15.52691406 43.70867187 -15.05382812 43.41734375 -14.56640625 43.1171875 C-5.83207031 38.14284915 -5.83207031 38.14284915 2 32 C2.21818246 27.90257007 2.18579116 23.8019736 2.18530273 19.69921875 C2.18748367 17.64041306 2.20562031 15.58214788 2.22460938 13.5234375 C2.22654297 12.22921875 2.22847656 10.935 2.23046875 9.6015625 C2.23457764 8.40869629 2.23868652 7.21583008 2.24291992 5.98681641 C2.2283302 2.81661699 2.2283302 2.81661699 0 0 Z " fill="#F9F3F2" transform="translate(308,137)"/>
<path d="M0 0 C1.32 1.32 2.64 2.64 4 4 C3.34 4.33 2.68 4.66 2 5 C1.34 4.34 0.68 3.68 0 3 C-0.53367188 3.26554687 -1.06734375 3.53109375 -1.6171875 3.8046875 C-12.93082578 9.16790011 -24.70879412 10.3719871 -37 8 C-39 6.4375 -39 6.4375 -40 5 C-39.3709375 5.15726562 -38.741875 5.31453125 -38.09375 5.4765625 C-25.49907162 7.60748031 -13.4353837 6.83242814 -2 1 C-1.34 0.67 -0.68 0.34 0 0 Z " fill="#F7F6F6" transform="translate(218,350)"/>
<path d="M0 0 C1.9375 0.6875 1.9375 0.6875 4 2 C5.69140759 7.89412102 4.9279256 14.07154456 4.6875 20.125 C4.65205078 21.31738281 4.61660156 22.50976562 4.58007812 23.73828125 C4.53689453 24.87910156 4.49371094 26.01992187 4.44921875 27.1953125 C4.41143311 28.23703613 4.37364746 29.27875977 4.3347168 30.35205078 C4 33 4 33 2 36 C1.34 36 0.68 36 0 36 C0 36.66 0 37.32 0 38 C-0.804375 38.12375 -1.60875 38.2475 -2.4375 38.375 C-3.283125 38.58125 -4.12875 38.7875 -5 39 C-5.33 39.66 -5.66 40.32 -6 41 C-6 40.01 -6 39.02 -6 38 C-4.27197266 36.91088867 -4.27197266 36.91088867 -2.0390625 35.73046875 C0.99486839 33.56442678 1.8818244 32.53829069 2.69238281 28.84619141 C2.85991082 24.98328344 2.79469919 21.17104712 2.625 17.3125 C2.60199203 15.96815396 2.58242909 14.62374431 2.56640625 13.27929688 C2.66236702 6.24694594 2.66236702 6.24694594 0 0 Z " fill="#FBF6F6" transform="translate(308,94)"/>
<path d="M0 0 C1.9453125 0.70703125 1.9453125 0.70703125 4 2 C5.78099827 7.59888538 5.34591851 13.66836702 3 19 C0.84959572 21.4666402 -0.66816031 22.76274921 -3.9296875 23.34375 C-8.44000041 23.54799058 -11.30804405 22.76896696 -15 20 C-14.67 19.34 -14.34 18.68 -14 18 C-13.319375 18.515625 -12.63875 19.03125 -11.9375 19.5625 C-8.09474677 21.44299626 -6.08867758 21.11509388 -2 20 C0.83985475 17.81822211 1.88746213 16.70193114 2.4609375 13.125 C2.43257813 12.09375 2.40421875 11.0625 2.375 10 C2.36210937 8.96875 2.34921875 7.9375 2.3359375 6.875 C2.01091829 4.09344028 1.42920883 2.37820349 0 0 Z " fill="#F6F3F3" transform="translate(271,230)"/>
<path d="M0 0 C0.66 0.33 1.32 0.66 2 1 C3.87807667 6.63423 4.18871422 13.79721976 2.10546875 19.41015625 C1 21.3125 1 21.3125 -1 24 C-1.66 24 -2.32 24 -3 24 C-2.505 22.824375 -2.01 21.64875 -1.5 20.4375 C0.77068491 13.78535265 0.24658331 6.93173069 0 0 Z " fill="#E8E7E7" transform="translate(355,320)"/>
<path d="M0 0 C2.28861937 2.05793625 2.94631019 2.6548512 3.4375 5.8125 C2.89460281 9.76789385 1.45666187 11.89304528 -1 15 C-3.52475462 16.26237731 -5.31200466 16.09856404 -8.125 16.0625 C-9.03507812 16.05347656 -9.94515625 16.04445313 -10.8828125 16.03515625 C-11.93082031 16.01775391 -11.93082031 16.01775391 -13 16 C-13 15.67 -13 15.34 -13 15 C-11.96939453 14.85304688 -11.96939453 14.85304688 -10.91796875 14.703125 C-10.01691406 14.55359375 -9.11585937 14.4040625 -8.1875 14.25 C-7.29417969 14.11078125 -6.40085937 13.9715625 -5.48046875 13.828125 C-2.40433586 12.8011326 -1.51986513 11.839748 0 9 C0.35957889 6.64070358 0.35957889 6.64070358 0.1875 4.25 C0.16042969 3.45078125 0.13335937 2.6515625 0.10546875 1.828125 C0.07066406 1.22484375 0.03585938 0.6215625 0 0 Z " fill="#EFECEB" transform="translate(59,269)"/>
<path d="M0 0 C0.99 0.66 1.98 1.32 3 2 C1.46279297 2.05607422 1.46279297 2.05607422 -0.10546875 2.11328125 C-1.46618062 2.17897079 -2.82685611 2.24541709 -4.1875 2.3125 C-4.86103516 2.33505859 -5.53457031 2.35761719 -6.22851562 2.38085938 C-10.65197556 2.61821576 -13.36336477 3.52017378 -17 6 C-17.66 6 -18.32 6 -19 6 C-18 3 -18 3 -15.125 1.3125 C-10.29005993 -0.59338924 -5.11466292 -0.62711631 0 0 Z " fill="#F5F3F3" transform="translate(199,285)"/>
<path d="M0 0 C0.33 0 0.66 0 1 0 C1.3431111 3.08799987 1.25565158 4.59984971 -0.4375 7.25 C-4.04437138 9.71322924 -7.65806241 10.22932769 -12 10 C-14.28125 9.0078125 -14.28125 9.0078125 -16 8 C-13.09224941 6.54612471 -10.39561107 6.97803991 -7.19140625 7.0625 C-4.81980059 7.1005187 -4.81980059 7.1005187 -2 6 C-0.77479736 2.99152582 -0.77479736 2.99152582 0 0 Z " fill="#F4F0F0" transform="translate(274,349)"/>
<path d="M0 0 C-0.33 0.99 -0.66 1.98 -1 3 C-2.2065625 3.433125 -2.2065625 3.433125 -3.4375 3.875 C-6.18840273 4.75286524 -6.18840273 4.75286524 -7.125 7.3125 C-7.41375 8.199375 -7.7025 9.08625 -8 10 C-8.97236487 11.6829392 -9.96564444 13.35443434 -11 15 C-11.66796875 13.25390625 -11.66796875 13.25390625 -12 11 C-10.92578125 8.96484375 -10.92578125 8.96484375 -9.3125 6.9375 C-8.79300781 6.26589844 -8.27351563 5.59429687 -7.73828125 4.90234375 C-3.2587269 0 -3.2587269 0 0 0 Z " fill="#F8F5F5" transform="translate(88,286)"/>
<path d="M0 0 C0.66 0 1.32 0 2 0 C-0.06531396 4.86824006 -3.61855537 7.24131264 -8 10 C-11.5 11.375 -11.5 11.375 -14 12 C-10.96606031 8.73268033 -7.69842881 6.4656192 -4 4 C-3.2575 3.2575 -2.515 2.515 -1.75 1.75 C-0.88375 0.88375 -0.88375 0.88375 0 0 Z " fill="#F7F5F5" transform="translate(351,344)"/>
<path d="M0 0 C0.66 0 1.32 0 2 0 C-0.7017515 6.02698412 -4.04563882 7.64072482 -10 10 C-10.33 9.34 -10.66 8.68 -11 8 C-10.37351562 7.59007813 -9.74703125 7.18015625 -9.1015625 6.7578125 C-8.28429687 6.21898438 -7.46703125 5.68015625 -6.625 5.125 C-5.40683594 4.32449219 -5.40683594 4.32449219 -4.1640625 3.5078125 C-1.92405904 2.04134945 -1.92405904 2.04134945 0 0 Z " fill="#F6ECEC" transform="translate(310,81)"/>
<path d="M0 0 C0.66 0.33 1.32 0.66 2 1 C0.42702086 2.86562642 -0.45510217 3.90238443 -2.90112305 4.34057617 C-3.59761963 4.32486572 -4.29411621 4.30915527 -5.01171875 4.29296875 C-5.76904297 4.28330078 -6.52636719 4.27363281 -7.30664062 4.26367188 C-8.48516602 4.2259668 -8.48516602 4.2259668 -9.6875 4.1875 C-10.88342773 4.16719727 -10.88342773 4.16719727 -12.10351562 4.14648438 C-14.06929967 4.11117089 -16.03473582 4.05736447 -18 4 C-18 3.67 -18 3.34 -18 3 C-17.11957031 2.95101563 -16.23914063 2.90203125 -15.33203125 2.8515625 C-14.17058594 2.77679688 -13.00914062 2.70203125 -11.8125 2.625 C-10.08966797 2.52058594 -10.08966797 2.52058594 -8.33203125 2.4140625 C-5.19277934 2.02395617 -2.89898295 1.1843092 0 0 Z " fill="#E8E2E1" transform="translate(336,354)"/>
<path d="M0 0 C0.66 0.33 1.32 0.66 2 1 C0.54782324 2.50596108 -0.91192861 4.00462104 -2.375 5.5 C-3.18710937 6.3353125 -3.99921875 7.170625 -4.8359375 8.03125 C-7 10 -7 10 -9 10 C-7.61811547 6.78956118 -6.07578097 4.95063635 -3.375 2.75 C-2.74335938 2.22921875 -2.11171875 1.7084375 -1.4609375 1.171875 C-0.73777344 0.59179688 -0.73777344 0.59179688 0 0 Z " fill="#AEAFB0" transform="translate(300,270)"/>
<path d="M0 0 C1.4606285 2.64738916 2 3.89448334 2 7 C2.99 7.33 3.98 7.66 5 8 C5 9.98 5 11.96 5 14 C1.88979866 11.45528982 0.99866974 8.84103748 0 5 C-0.125 2.125 -0.125 2.125 0 0 Z " fill="#808182" transform="translate(168,313)"/>
<path d="M0 0 C-3.36423277 2.96052484 -6.69159287 3.92289822 -11 5 C-11.33 4.34 -11.66 3.68 -12 3 C-10.5682384 2.30062798 -9.12932968 1.61587282 -7.6875 0.9375 C-6.48673828 0.36322266 -6.48673828 0.36322266 -5.26171875 -0.22265625 C-3 -1 -3 -1 0 0 Z " fill="#F1DCDA" transform="translate(255,198)"/>
<path d="M0 0 C1.01126953 0.23009766 1.01126953 0.23009766 2.04296875 0.46484375 C5.46877952 1.08483857 8.83893447 1.3352574 12.3125 1.5625 C13.56675781 1.64628906 14.82101563 1.73007812 16.11328125 1.81640625 C17.54220703 1.90728516 17.54220703 1.90728516 19 2 C19 2.33 19 2.66 19 3 C16.39521117 3.0809313 13.79293347 3.14045434 11.1875 3.1875 C10.08051758 3.22520508 10.08051758 3.22520508 8.95117188 3.26367188 C3.45025238 3.33834499 3.45025238 3.33834499 0.98828125 1.48828125 C0.66214844 0.99714844 0.33601562 0.50601562 0 0 Z " fill="#DFDAD9" transform="translate(178,355)"/>
<path d="M0 0 C0 0.66 0 1.32 0 2 C-1.61992165 2.86375896 -3.24611861 3.71575854 -4.875 4.5625 C-6.23238281 5.27599609 -6.23238281 5.27599609 -7.6171875 6.00390625 C-8.40351563 6.33261719 -9.18984375 6.66132813 -10 7 C-10.66 6.67 -11.32 6.34 -12 6 C-8.40461874 2.91824463 -4.933456 0 0 0 Z " fill="#F9F5F4" transform="translate(218,213)"/>
<path d="M0 0 C0.66 0 1.32 0 2 0 C5.11450382 4.15267176 5.11450382 4.15267176 4.6875 7.3125 C4.460625 7.869375 4.23375 8.42625 4 9 C3.896875 8.360625 3.79375 7.72125 3.6875 7.0625 C3.460625 6.381875 3.23375 5.70125 3 5 C2.01 4.67 1.02 4.34 0 4 C0 2.68 0 1.36 0 0 Z " fill="#C5C4C4" transform="translate(137,284)"/>
<path d="M0 0 C-5.2734375 3.22265625 -5.2734375 3.22265625 -7 4 C-7.66 3.67 -8.32 3.34 -9 3 C-5.83583464 -0.30799106 -4.50236011 -1.35070803 0 0 Z " fill="#F8F2F1" transform="translate(275,190)"/>
<path d="M0 0 C0.66 0 1.32 0 2 0 C0.55746343 3.36591866 -1.33264727 5.51047079 -4 8 C-4.66 7.67 -5.32 7.34 -6 7 C-5.04882866 5.8274869 -4.08882991 4.66212985 -3.125 3.5 C-2.59132812 2.8503125 -2.05765625 2.200625 -1.5078125 1.53125 C-0.76144531 0.77328125 -0.76144531 0.77328125 0 0 Z " fill="#B3B4B4" transform="translate(164,276)"/>
<path d="M0 0 C4.875 4.75 4.875 4.75 6 7 C4.68 6.67 3.36 6.34 2 6 C2 5.34 2 4.68 2 4 C1.34 4 0.68 4 0 4 C0 2.68 0 1.36 0 0 Z " fill="#AEADAE" transform="translate(287,342)"/>
</svg>
